<?xml version="1.0" encoding="UTF-8"?>
<svg id="Calque_1" xmlns="http://www.w3.org/2000/svg" version="1.1" viewBox="0 0 765.92 165.12">
  <!-- Generator: Adobe Illustrator 29.6.1, SVG Export Plug-In . SVG Version: 2.1.1 Build 9)  -->
  <defs>
    <style>
      .st0 {
        fill: #647f53;
      }
    </style>
  </defs>
  <g>
    <path class="st0" d="M75.36,121.25l-11.07,18.83,128.83-.55L111.44,1.21h-22.95l68.03,114.71c.67,1.13.68,2.54.03,3.68-.65,1.14-1.86,1.84-3.18,1.84h0l-29.77-.07c-.45.08-.91.08-1.35,0l-46.53-.1c-.12,0-.24,0-.35-.02Z"/>
    <path class="st0" d="M57.89,147.42h-.02c-1.31,0-2.52-.7-3.17-1.84-.66-1.14-.65-2.54.02-3.68l38.82-66.02-11.52-19.22-63.9,108.45h164.63l10.44-18.27-135.3.57Z"/>
    <path class="st0" d="M11.62,161.72L78.84,47.64c.66-1.11,1.85-1.8,3.14-1.8h.01c1.29,0,2.48.67,3.14,1.78l15.79,26.35s0,.02.01.02l24.02,40.07,21.98.05L82.06,4.72,0,143.11l11.62,18.61Z"/>
  </g>
  <g>
    <path class="st0" d="M229.57,118.42c-.75,0-1.13-.38-1.13-1.13V42.64c0-.75.38-1.13,1.13-1.13h29.86c4.15,0,7.88.6,11.2,1.81,3.32,1.21,6.14,2.9,8.48,5.09,2.34,2.19,4.11,4.79,5.32,7.8,1.21,3.02,1.81,6.37,1.81,10.07s-.62,6.94-1.87,9.95c-1.24,3.02-3.02,5.62-5.32,7.8-2.3,2.19-5.11,3.88-8.43,5.09-3.32,1.21-7.05,1.81-11.2,1.81h-13.69c-.45,0-.68.23-.68.68v25.68c0,.75-.38,1.13-1.13,1.13h-14.36ZM258.41,76.57c3.54,0,6.3-.92,8.26-2.77,1.96-1.85,2.94-4.35,2.94-7.52s-.98-5.69-2.94-7.58c-1.96-1.88-4.71-2.83-8.26-2.83h-12.67c-.45,0-.68.23-.68.68v19.34c0,.45.23.68.68.68h12.67Z"/>
    <path class="st0" d="M295.36,118.42c-.75,0-1.13-.38-1.13-1.13v-52.48c0-.75.38-1.13,1.13-1.13h13.57c.75,0,1.13.38,1.13,1.13v4.64h.11c1.28-2.19,3.13-3.9,5.54-5.15,2.41-1.24,5.32-1.87,8.71-1.87,1.81,0,3.56.28,5.26.85,1.7.57,3.15,1.38,4.35,2.43.53.45.64.98.34,1.58l-6.33,11.54c-.38.45-.9.53-1.58.23-2.71-1.73-5.35-2.56-7.92-2.49-2.94.15-5.09,1.24-6.45,3.28-1.36,2.04-2.04,4.9-2.04,8.6v28.84c0,.75-.38,1.13-1.13,1.13h-13.57Z"/>
    <path class="st0" d="M361.97,119.66c-5.81,0-10.82-1.32-15.04-3.96-4.22-2.64-7.13-6.45-8.71-11.42-.6-1.96-1.06-3.98-1.36-6.05-.3-2.07-.45-4.47-.45-7.18s.15-5.11.45-7.18c.3-2.07.75-4.09,1.36-6.05,1.58-4.98,4.49-8.78,8.71-11.42,4.22-2.64,9.24-3.96,15.04-3.96s10.82,1.32,15.04,3.96c4.22,2.64,7.13,6.45,8.71,11.42.6,1.96,1.06,3.98,1.36,6.05.3,2.07.45,4.47.45,7.18s-.15,5.11-.45,7.18c-.3,2.07-.75,4.09-1.36,6.05-1.58,4.98-4.49,8.79-8.71,11.42-4.22,2.64-9.24,3.96-15.04,3.96ZM361.97,106.32c4.37,0,7.2-1.96,8.48-5.88.38-1.28.64-2.58.79-3.9.15-1.32.23-3.15.23-5.49s-.08-4.17-.23-5.49c-.15-1.32-.42-2.62-.79-3.9-1.28-3.92-4.11-5.88-8.48-5.88s-7.2,1.96-8.48,5.88c-.38,1.28-.64,2.58-.79,3.9-.15,1.32-.23,3.15-.23,5.49s.07,4.17.23,5.49c.15,1.32.41,2.62.79,3.9,1.28,3.92,4.11,5.88,8.48,5.88Z"/>
    <path class="st0" d="M415.14,119.1c-6.33,0-10.82-1.47-13.46-4.41-2.64-2.94-3.96-7.54-3.96-13.8v-24.88c0-.45-.23-.68-.68-.68h-3.39c-.75,0-1.13-.38-1.13-1.13v-9.39c0-.75.38-1.13,1.13-1.13h3.39c.45,0,.68-.23.68-.68v-14.7c0-.75.38-1.13,1.14-1.13h13.56c.76,0,1.14.38,1.14,1.13v14.7c0,.45.22.68.67.68h6.92c.74,0,1.12.38,1.12,1.13v9.39c0,.75-.37,1.13-1.12,1.13h-6.92c-.45,0-.67.23-.67.68v24.3c0,2.04.37,3.46,1.12,4.26.74.8,2.01,1.19,3.8,1.19h2.68c.74,0,1.12.37,1.12,1.12v11.1c0,.75-.38,1.12-1.13,1.12h-6Z"/>
    <path class="st0" d="M453.72,119.66c-5.81,0-10.82-1.32-15.04-3.96-4.22-2.64-7.12-6.45-8.71-11.42-.6-1.96-1.06-3.98-1.36-6.05-.3-2.07-.45-4.47-.45-7.18s.15-5.11.45-7.18c.3-2.07.75-4.09,1.36-6.05,1.58-4.98,4.49-8.78,8.71-11.42,4.22-2.64,9.24-3.96,15.04-3.96s10.82,1.32,15.04,3.96c4.22,2.64,7.13,6.45,8.71,11.42.6,1.96,1.06,3.98,1.36,6.05.3,2.07.45,4.47.45,7.18s-.15,5.11-.45,7.18c-.3,2.07-.75,4.09-1.36,6.05-1.58,4.98-4.49,8.79-8.71,11.42-4.22,2.64-9.24,3.96-15.04,3.96ZM453.72,106.32c4.37,0,7.2-1.96,8.48-5.88.38-1.28.64-2.58.79-3.9.15-1.32.23-3.15.23-5.49s-.08-4.17-.23-5.49c-.15-1.32-.42-2.62-.79-3.9-1.28-3.92-4.11-5.88-8.48-5.88s-7.2,1.96-8.48,5.88c-.38,1.28-.64,2.58-.79,3.9-.15,1.32-.23,3.15-.23,5.49s.07,4.17.23,5.49c.15,1.32.41,2.62.79,3.9,1.28,3.92,4.11,5.88,8.48,5.88Z"/>
    <path class="st0" d="M514.79,119.66c-3.02,0-5.98-.28-8.88-.85-2.9-.57-5.64-1.32-8.2-2.26-2.56-.94-4.92-2.05-7.07-3.34-2.15-1.28-3.98-2.64-5.49-4.07-.6-.6-.64-1.24-.11-1.92l8.6-9.84c.45-.6,1.02-.64,1.7-.11,2.56,2.04,5.54,3.86,8.94,5.49,3.39,1.62,7.13,2.43,11.2,2.43s7.18-.85,9.33-2.54c2.15-1.7,3.22-3.9,3.22-6.62,0-2.26-.83-4.11-2.49-5.54-1.66-1.43-4.79-2.45-9.39-3.05l-4.07-.57c-7.84-1.06-13.86-3.45-18.04-7.18-4.18-3.73-6.28-9.03-6.28-15.89,0-3.54.64-6.77,1.92-9.67,1.28-2.9,3.11-5.37,5.49-7.41,2.38-2.04,5.24-3.62,8.6-4.75,3.35-1.13,7.11-1.7,11.25-1.7,5.13,0,9.95.72,14.48,2.15,4.52,1.43,8.41,3.39,11.65,5.88.68.45.75,1.02.23,1.7l-6.9,10.29c-.45.6-.98.72-1.58.34-2.94-1.96-5.86-3.43-8.77-4.41-2.9-.98-5.94-1.47-9.11-1.47-3.39,0-5.96.79-7.69,2.38-1.74,1.58-2.6,3.58-2.6,6,0,2.19.89,4,2.66,5.43,1.77,1.43,4.88,2.45,9.33,3.05l4.07.57c7.99,1.06,14.03,3.45,18.1,7.18,4.07,3.73,6.11,9.11,6.11,16.12,0,3.47-.64,6.69-1.92,9.67-1.28,2.98-3.19,5.54-5.71,7.69-2.53,2.15-5.67,3.83-9.44,5.03-3.77,1.21-8.14,1.81-13.12,1.81Z"/>
    <path class="st0" d="M577.34,119.66c-5.81,0-10.78-1.3-14.93-3.9-4.15-2.6-7.05-6.46-8.71-11.59-.6-1.66-1.04-3.54-1.3-5.66-.26-2.11-.4-4.6-.4-7.47s.13-5.35.4-7.46c.26-2.11.7-4,1.3-5.66,1.66-5.13,4.56-8.99,8.71-11.59,4.15-2.6,9.12-3.9,14.93-3.9,4.75,0,8.9.96,12.44,2.88,3.54,1.92,6.3,4.39,8.26,7.41.38.6.3,1.13-.23,1.58l-9.84,6.45c-.68.45-1.24.38-1.7-.23-1.21-1.66-2.47-2.87-3.79-3.62-1.32-.75-2.96-1.13-4.92-1.13-2.11,0-3.9.49-5.37,1.47-1.47.98-2.51,2.45-3.11,4.41-.38,1.13-.64,2.41-.79,3.85-.15,1.43-.23,3.28-.23,5.54s.07,4.11.23,5.54c.15,1.43.41,2.71.79,3.85.6,1.96,1.64,3.43,3.11,4.41,1.47.98,3.26,1.47,5.37,1.47,1.96,0,3.6-.38,4.92-1.13,1.32-.75,2.58-1.96,3.79-3.62.45-.6,1.02-.68,1.7-.23l9.84,6.45c.53.45.6.98.23,1.58-1.96,3.02-4.71,5.49-8.26,7.41-3.54,1.92-7.69,2.88-12.44,2.88Z"/>
    <path class="st0" d="M607.16,118.42c-.75,0-1.13-.38-1.13-1.13v-52.48c0-.75.38-1.13,1.13-1.13h13.57c.75,0,1.13.38,1.13,1.13v4.64h.11c1.28-2.19,3.13-3.9,5.54-5.15,2.41-1.24,5.32-1.87,8.71-1.87,1.81,0,3.56.28,5.26.85,1.7.57,3.15,1.38,4.35,2.43.53.45.64.98.34,1.58l-6.33,11.54c-.38.45-.9.53-1.58.23-2.71-1.73-5.36-2.56-7.92-2.49-2.94.15-5.09,1.24-6.45,3.28-1.36,2.04-2.04,4.9-2.04,8.6v28.84c0,.75-.38,1.13-1.13,1.13h-13.57Z"/>
    <path class="st0" d="M653.86,54.97c-.75,0-1.13-.37-1.13-1.12v-11.1c0-.75.38-1.12,1.13-1.12h13.57c.75,0,1.13.38,1.13,1.12v11.1c0,.75-.38,1.12-1.13,1.12h-13.57ZM653.86,118.42c-.75,0-1.13-.38-1.13-1.13v-52.48c0-.75.38-1.13,1.13-1.13h13.57c.75,0,1.13.38,1.13,1.13v52.48c0,.75-.38,1.13-1.13,1.13h-13.57Z"/>
    <path class="st0" d="M681.23,138.78c-.75,0-1.13-.38-1.13-1.13v-72.84c0-.75.38-1.13,1.13-1.13h13.57c.75,0,1.13.38,1.13,1.13v3.96h.11c1.28-1.88,3.09-3.41,5.43-4.58,2.34-1.17,5.32-1.75,8.94-1.75,4.6,0,8.48,1.09,11.65,3.28,3.17,2.19,5.47,5.47,6.9,9.84.68,2.19,1.17,4.41,1.47,6.67.3,2.26.45,5.2.45,8.82s-.15,6.47-.45,8.77c-.3,2.3-.79,4.54-1.47,6.73-1.43,4.3-3.73,7.56-6.9,9.78-3.17,2.22-7.05,3.34-11.65,3.34-3.62,0-6.6-.58-8.94-1.75-2.34-1.17-4.15-2.7-5.43-4.58h-.11v24.32c0,.75-.38,1.13-1.13,1.13h-13.57ZM705.32,106.32c4.37,0,7.2-1.96,8.48-5.88.38-1.06.64-2.28.79-3.68.15-1.39.23-3.3.23-5.71s-.08-4.32-.23-5.71c-.15-1.39-.42-2.62-.79-3.68-1.21-3.92-4.04-5.88-8.48-5.88s-7.17,1.96-8.37,5.88c-.38,1.06-.64,2.28-.79,3.68-.15,1.4-.23,3.3-.23,5.71s.07,4.32.23,5.71c.15,1.4.41,2.62.79,3.68,1.28,3.92,4.07,5.88,8.37,5.88Z"/>
    <path class="st0" d="M758.8,119.1c-6.33,0-10.82-1.47-13.46-4.41-2.64-2.94-3.96-7.54-3.96-13.8v-24.88c0-.45-.23-.68-.68-.68h-3.39c-.75,0-1.13-.38-1.13-1.13v-9.39c0-.75.38-1.13,1.13-1.13h3.39c.45,0,.68-.23.68-.68v-14.7c0-.75.38-1.13,1.14-1.13h13.56c.76,0,1.14.38,1.14,1.13v14.7c0,.45.22.68.67.68h6.92c.74,0,1.12.38,1.12,1.13v9.39c0,.75-.37,1.13-1.12,1.13h-6.92c-.45,0-.67.23-.67.68v24.3c0,2.04.37,3.46,1.12,4.26.74.8,2.01,1.19,3.8,1.19h2.68c.74,0,1.12.37,1.12,1.12v11.1c0,.75-.38,1.12-1.13,1.12h-6Z"/>
  </g>
</svg>